<?xml version="1.0" encoding="UTF-8"?>
<svg width="136px" height="136px" viewBox="0 0 136 136" version="1.1" xmlns="http://www.w3.org/2000/svg" xmlns:xlink="http://www.w3.org/1999/xlink">
    <!-- Generator: Sketch 52 (66869) - http://www.bohemiancoding.com/sketch -->
    <title>分组</title>
    <desc>Created with Sketch.</desc>
    <defs>
        <polygon id="path-1" points="0.569934823 0.515514792 135.484769 0.515514792 135.484769 136 0.569934823 136"></polygon>
    </defs>
    <g id="Page-1" stroke="none" stroke-width="1" fill="none" fill-rule="evenodd">
        <g id="分组">
            <g>
                <mask id="mask-2" fill="white">
                    <use xlink:href="#path-1"></use>
                </mask>
                <g id="Clip-2"></g>
                <path d="M5.54025641,56.5092205 C5.984,55.8274769 5.99184615,55.096041 5.92994872,54.3532718 C5.68584615,54.3070667 5.64923077,54.4456821 5.61610256,54.5956308 C5.50538462,55.0803487 5.39641026,55.5668103 5.27697436,56.0497846 C5.2185641,56.2851692 5.32928205,56.4046051 5.54025641,56.5092205 M8.32389744,81.9604 C8.47907692,81.4373231 8.63774359,80.9151179 8.78769231,80.3902974 C8.80774359,80.3196821 8.81646154,80.2185538 8.78158974,80.1618872 C8.55753846,79.7992205 8.31953846,79.4452718 8.08502564,79.0878359 C8.05015385,79.1017846 8.01615385,79.1157333 7.98128205,79.1288103 C8.06758974,80.0729641 8.05538462,81.0258359 8.32389744,81.9604 M17.106359,29.3990154 C16.2772821,29.8697846 15.1125641,31.6709128 14.9704615,32.6621436 C15.8727692,31.7118872 16.6033333,30.6552718 17.106359,29.3990154 M75.9167692,128.012092 C77.3848718,127.843836 78.8372821,127.608451 80.2661538,127.251015 C78.5164615,127.067938 77.2933333,127.270195 75.9167692,128.012092 M83.7707692,4.55722051 C83.7629231,4.5929641 83.7550769,4.62870769 83.7472308,4.66532308 C85.0200513,5.07419487 86.3033333,5.45429744 87.5630769,5.90065641 C88.8106154,6.34352821 90.0459487,6.82650256 91.2647179,7.34173333 C92.4887179,7.85957949 93.6865641,8.43932308 94.8966154,8.99204103 L94.9384615,8.88829744 C91.3632308,7.06450256 87.6432821,5.6138359 83.7707692,4.55722051 M35.5151795,116.824349 C33.932,114.942144 31.8893846,113.618759 29.9034359,112.225631 C31.6417949,113.916041 33.5100513,115.448656 35.5151795,116.824349 M77.214,3.33060513 C77.2645641,3.1998359 77.3177436,3.06557949 77.3787692,2.90255385 C76.980359,2.8258359 76.6508205,2.75522051 76.3186667,2.69942564 C75.2855897,2.52506667 74.2525128,2.34809231 73.2176923,2.18681026 C72.7207692,2.10922051 72.7050769,2.13101538 72.5080513,2.51722051 C74.0450256,2.78311795 75.5837436,3.04901538 77.214,3.33060513 M76.0832821,134.039682 C76.062359,133.714503 75.9211282,133.629938 75.6578462,133.663067 C74.5184103,133.8104 73.3772308,133.948144 72.2369231,134.085887 C70.0609231,134.349169 67.8779487,134.409323 65.6906154,134.300349 C63.1772308,134.173067 60.7022051,133.783374 58.2629231,133.170503 C58.0449744,133.115579 57.829641,133.047579 57.5898974,132.980451 C57.5436923,132.214144 57.018,131.878503 56.3824615,131.700656 C55.6518974,131.496656 54.9047692,131.350195 54.1637436,131.185426 C51.9336923,130.687631 49.7559487,130.01199 47.6069744,129.24481 C38.3241026,125.929374 30.2042051,120.779682 23.2673333,113.773067 C20.1811795,110.6564 17.4324103,107.264246 15.0070769,103.609682 C13.6906667,101.626349 12.3794872,99.6412718 11.0648205,97.6570667 C11.0299487,97.6056308 10.9872308,97.5594256 10.8791282,97.4242974 C10.744,98.1810154 10.7640513,98.8697333 10.6507179,99.5549641 C10.6071282,99.5471179 10.5461026,99.5549641 10.5234359,99.5296821 C9.66384615,98.5393231 8.78333333,97.5664 7.95687179,96.5490154 C6.93076923,95.2866564 6.39374359,93.7985026 6.14876923,92.2066051 C6.052,91.5745538 5.88635897,90.9704 5.62220513,90.3958872 C3.57523077,85.942759 2.26928205,81.2594769 1.31553846,76.4698359 C1.02174359,74.9956308 0.829076923,73.5005026 0.609384615,72.0123487 C0.505641026,71.3053231 0.616358974,70.1153231 0.826461538,69.4606051 C1.48989744,74.5196308 2.59358974,79.3668103 4.27353846,84.0884513 C4.52897436,84.0152205 4.46097436,83.8713744 4.42697436,83.7353744 C4.21687179,82.9045538 3.9954359,82.0754769 3.80102564,81.2402974 C3.18466667,78.590041 2.72697436,75.9118872 2.41487179,73.2084513 C2.10974359,70.5695282 1.87087179,67.9262462 1.76276923,65.2725026 C1.72789744,64.4155282 1.73138462,63.5559385 1.73748718,62.6980923 C1.75230769,60.6528615 2.10015385,58.6817333 2.93707692,56.7951692 C3.5874359,55.3279385 3.96928205,53.7648103 4.37553846,52.214759 C5.54025641,47.7781949 6.97610256,43.4357846 8.84348718,39.2407077 C12.3315385,31.4024 17.0732308,24.4236821 23.1723077,18.3830154 C30.7133333,10.9117333 39.648359,5.87275897 49.9024103,3.15711795 C52.8325128,2.38122051 55.8088205,1.85029744 58.8217436,1.52424615 C59.6421026,1.43532308 60.4659487,1.36470769 61.2906667,1.33942564 C62.1694359,1.3124 63.0264103,1.1764 63.886,1.00727179 C66.3148205,0.529528205 68.7706667,0.413579487 71.2352308,0.60014359 C84.4655897,1.59922051 96.1258462,6.4124 106.194205,15.052759 C107.605641,16.2636821 108.915077,17.5931692 110.267231,18.8720923 C110.431128,19.0272718 110.587179,19.1990154 110.710974,19.3855795 C110.794667,19.5111179 110.865282,19.6793744 110.858308,19.8249641 C110.828667,20.4561436 111.035282,21.0167077 111.389231,21.5084 C111.812923,22.0986051 112.284564,22.6556821 112.751846,23.2145026 C113.198205,23.748041 113.67159,24.2597846 114.120564,24.7915795 C114.308,25.0121436 114.463179,25.2579897 114.648,25.5142974 C114.528564,25.6154256 114.43441,25.694759 114.335897,25.7775795 C114.267897,25.7244 114.212103,25.6912718 114.167641,25.6459385 C113.248769,24.7096308 112.337744,23.7663487 111.409282,22.8396308 C111.067538,22.4978872 110.709231,22.1639897 110.318667,21.8797846 C106.507179,19.1092205 102.652103,16.4014256 98.5965128,13.9917846 C94.6089231,11.6231179 90.4713846,9.56481026 86.0749231,8.05486154 C83.0977436,7.03311795 80.0438462,6.33393846 76.9367692,5.84573333 C73.3092308,5.27557949 69.6607692,5.08378462 65.9948718,5.19188718 C51.2109744,5.62691282 37.0277436,11.8314769 27.0291282,21.9817846 C19.3677949,29.7581949 14.246,38.9852718 11.56,49.562759 C10.6890769,52.9897846 10.1511795,56.4726051 9.88179487,59.9990154 C9.62287179,63.3981436 9.63769231,66.7946564 9.92276923,70.1894256 C10.5155897,77.2492205 12.1824615,84.0431179 15.0898974,90.5100923 C18.8298974,98.8296308 24.305641,105.821426 31.4011795,111.539528 C38.1558462,116.984759 45.7500513,120.760503 54.1794359,122.837118 C56.6649231,123.449118 59.1817949,123.8824 61.7265641,124.169221 C64.8223077,124.517938 67.9285128,124.632144 71.0382051,124.517067 C75.6848718,124.346195 80.2452308,123.622605 84.6905128,122.229477 C84.8134359,122.190246 84.936359,122.150144 85.0575385,122.106554 C85.0845641,122.096964 85.1054872,122.069938 85.2074872,121.985374 C84.995641,122.015015 84.8648718,122.025477 84.7367179,122.051631 C81.910359,122.617426 79.0665641,123.079477 76.1948718,123.334041 C72.9491795,123.622605 69.6947692,123.72199 66.440359,123.535426 C60.9123077,123.218964 55.5289744,122.185015 50.3566154,120.159836 C50.0113846,120.023836 49.6705128,119.878246 49.2991282,119.72481 C49.3435897,119.605374 49.3793333,119.507733 49.4342564,119.358656 C56.7983077,122.167579 64.396,123.350605 72.2447692,122.911221 C80.0804615,122.472708 87.4706667,120.399579 94.5487692,116.772041 C94.4005641,117.124246 94.2288205,117.335221 94.0134872,117.476451 C93.4607692,117.839118 92.8906154,118.176503 92.3204615,118.511272 C91.7067179,118.870451 91.0825128,119.209579 90.4687692,119.568759 C90.3266667,119.653323 90.2115897,119.784964 90.0834359,119.893938 C90.1017436,119.924451 90.1209231,119.955836 90.1392308,119.986349 C90.3005128,119.927067 90.4626667,119.871272 90.6213333,119.807631 C94.6010769,118.241015 98.2050769,116.0284 101.564974,113.406041 C104.692103,110.966759 107.477487,108.167426 110.098974,105.201579 C110.806,104.402144 111.492103,103.585272 112.248821,102.703887 C112.137231,102.616708 112.053538,102.551323 111.950667,102.470246 C111.839949,102.5644 111.754513,102.631528 111.676923,102.706503 C110.153897,104.159785 108.657897,105.641836 107.102615,107.058503 C106.025949,108.037528 104.883026,108.947682 103.738359,109.848246 C102.856974,110.541323 101.886667,111.097528 100.804769,111.431426 C100.701026,111.46281 100.592923,111.480246 100.456051,111.446246 C100.578974,111.351221 100.701897,111.257067 100.825692,111.162913 C101.931128,110.317272 103.047897,109.485579 104.138513,108.619887 C104.814154,108.084605 105.357282,107.423785 105.853333,106.713272 C106.184615,106.239015 106.597846,105.817938 107.00759,105.404708 C108.193231,104.209477 109.405026,103.0404 110.586308,101.84081 C110.982103,101.438041 111.339538,100.992554 111.674308,100.537477 C112.120667,99.9289641 112.412718,99.2480923 112.463282,98.480041 C112.489436,98.0868615 112.730051,97.7921949 112.954103,97.4949128 C114.669795,95.2134256 116.205897,92.8159897 117.565897,90.3060923 C117.912,89.6670667 118.241538,89.0184513 118.598103,88.3375795 C118.728,88.4204 118.840462,88.4936308 118.999128,88.594759 C117.487436,91.7977333 115.688051,94.7993231 113.621026,97.672759 C113.715179,97.7765026 113.794513,97.8654256 113.897385,97.978759 C114.013333,97.8401436 114.110103,97.7355282 114.194667,97.6221949 C117.353179,93.3739385 119.892718,88.7856821 121.779282,83.8382462 C122.200359,82.7345538 122.624923,81.6317333 123.012,80.5158359 C123.431333,79.3066564 123.793128,78.0782974 123.856769,76.788041 C123.884667,76.2239897 123.823641,75.6512205 123.893385,75.0924 C124.018923,74.0994256 124.208974,73.1134256 124.378974,72.1265538 C124.472256,71.586041 124.580359,71.0490154 124.693692,70.4483487 C126.262923,70.5852205 127.833897,70.7220923 129.429282,70.8607077 C130.014256,69.0665538 130.358615,67.2410154 130.775333,65.3692718 C131.115333,65.6735282 131.246974,66.0545026 131.45359,66.3796821 C131.678513,66.7345026 131.878154,67.106759 132.088256,67.4711692 C132.287897,67.8181436 132.48841,68.1642462 132.729897,68.5809641 C133.064667,67.9340923 133.366308,67.3526051 133.706308,66.6978872 C133.892872,66.9097333 134.055897,67.0614256 134.178821,67.2410154 C134.767282,68.0971179 135.088974,69.0595795 135.272051,70.0734769 C135.571077,71.730759 135.525744,73.3958872 135.317385,75.0566564 C134.860564,78.7033744 133.803077,82.2053744 132.702872,85.6942974 C131.496308,89.5153744 129.874769,93.1664513 128.150359,96.7765538 C127.369231,98.412041 126.638667,100.071938 125.900256,101.726605 C125.256872,103.168554 124.458308,104.519836 123.515026,105.778708 C118.708821,112.189887 113.285385,117.987323 106.723385,122.654041 C99.5310769,127.769733 91.6727179,131.417323 83.0837949,133.47999 C80.3620513,134.133836 77.6394359,134.780708 74.8793333,135.255836 C72.3894872,135.685631 69.8917949,136.074451 67.3531282,135.988144 C66.023641,135.94281 64.706359,135.778041 63.444,135.321221 C63.3297949,135.280246 63.2182051,135.233169 63.1135897,135.146862 C67.4655897,135.140759 71.7792308,134.833887 76.0832821,134.039682" id="Fill-1" fill="#BA1B21" mask="url(#mask-2)"></path>
            </g>
            <path d="M22.2773103,31.0878305 C21.5724427,32.3113695 20.8604463,33.5314301 20.1644898,34.7601868 C17.1792733,40.0326227 14.9176376,45.5798549 13.5230513,51.4540598 C12.868977,54.2107185 12.4029268,56.9943351 12.1471784,59.8136056 C11.8682611,62.8937587 11.8067746,65.9747814 11.9983631,69.0592824 C12.4858,76.8814103 14.4186163,84.3513467 17.7789899,91.4699612 C19.1308029,94.3335818 20.6991555,97.0832836 22.3655301,99.7816786 C22.6025652,100.165176 22.828907,100.55563 23,101 C22.9055424,100.929562 22.8101937,100.861732 22.7175183,100.788685 C21.7675957,100.038213 21.0333215,99.1172978 20.3872672,98.1059432 C18.1746425,94.6362055 16.4316325,90.9490658 14.9719952,87.1271368 C13.4758225,83.21129 12.4421356,79.1789157 11.7738035,75.0534933 C11.1687403,71.3089595 10.9112096,67.5400765 11.0270539,63.7555406 C11.3603288,52.8497814 14.3892097,42.7240608 20.3623161,33.4714272 C20.914804,32.6148629 21.5715516,31.8226496 22.1801793,31 C22.2122593,31.0295667 22.2443392,31.0582638 22.2773103,31.0878305" id="Fill-3" fill="#BA1B21"></path>
            <path d="M128.368697,57.4709395 C128.67384,59.9647009 128.818741,62.4669937 128.77868,65 C128.724982,64.898475 128.661907,64.8003626 128.620142,64.6937187 C128.305623,63.8909033 128.151346,63.0522555 128.089124,62.1965447 C128.022641,61.2811134 127.968942,60.3639757 127.934848,59.446838 C127.879445,57.9487043 127.557254,56.4992002 127.180513,55.0582276 C126.768825,53.4824571 126.344352,51.9083929 126.138934,50.2874054 C126.085236,49.8642423 126.04688,49.4402261 126,49 C126.894974,49.4206036 127.806142,50.4785113 128.084862,51.3589634 C128.501665,52.670257 128.953413,53.9704596 129.358282,55.2851658 C129.832192,56.8233977 130.088751,58.3966087 129.971978,60.0133305 C129.948112,60.3443532 129.90379,60.6736696 129.829635,61.0149301 C129.53131,60.4509971 129.381296,59.8324624 129.154569,59.2446411 C128.921876,58.6457289 128.699411,58.0434041 128.472684,57.4427855 C128.437738,57.4521702 128.403644,57.4615549 128.368697,57.4709395" id="Fill-5" fill="#BA1B21"></path>
            <path d="M117,28 C120.07066,31.5856539 122.573051,35.4384709 124,40 C122.3588,38.8050684 117.465328,30.4259432 117,28" id="Fill-7" fill="#BA1B21"></path>
            <path d="M0.718202374,64 C0.431599774,63.8389642 0.228094969,63.725143 0,63.5969889 C0.423968344,58.9809094 1.29310345,54.4668473 2.64471453,50 C2.78462408,50.0952725 2.8821368,50.161879 3,50.2428184 C2.39118146,52.4914182 1.9714528,54.7636254 1.65686829,57.0560674 C1.34313171,59.345137 1.03787451,61.6358928 0.718202374,64" id="Fill-9" fill="#BA1B21"></path>
            <path d="M76.8307968,4 C75.1575649,3.76135122 73.5765443,3.53600175 72,3.31065229 C72.2014324,2.98260257 72.217547,2.96487015 72.7278424,3.03062787 C73.7905103,3.1665764 74.8504924,3.31656309 75.912265,3.46433323 C76.252462,3.51235853 76.5908684,3.57146659 77,3.6372243 C76.9364369,3.77465053 76.8836168,3.88843354 76.8307968,4" id="Fill-11" fill="#BA1B21"></path>
            <path d="M36,117 C33.8561442,115.505878 31.8595619,113.837315 30,112 C32.1233494,113.514979 34.3082181,114.955063 36,117" id="Fill-13" fill="#BA1B21"></path>
            <path d="M84.0231344,5 C87.829179,5.9530175 91.4852781,7.26145076 95,8.90642815 L94.9580153,9 C93.7695903,8.50147435 92.5914473,7.97857283 91.3884561,7.5114999 C90.190606,7.04678592 88.9764761,6.61116572 87.7503505,6.21250246 C86.5122293,5.80912129 85.2509737,5.46628661 84,5.09750344 C84.0077115,5.0652644 84.015423,5.03223904 84.0231344,5" id="Fill-15" fill="#BA1B21"></path>
            <path d="M76,128.945151 C77.2659852,128.094151 78.3900581,127.862151 80,128.073151 C78.685909,128.482151 77.3509721,128.754151 76,128.945151" id="Fill-17" fill="#BA1B21"></path>
            <path d="M17,30 C16.5289796,31.1549559 15.8440816,32.1263692 15,33 C15.1330612,32.0878974 16.2236735,30.4328079 17,30" id="Fill-19" fill="#BA1B21"></path>
            <path d="M8.393,82 C8.085,81.0230653 8.1,80.0279211 8,79.0427921 C8.04,79.0282246 8.08,79.0145675 8.12,79 C8.388,79.3732929 8.661,79.7429439 8.918,80.1216995 C8.958,80.1808801 8.948,80.2855842 8.925,80.3602428 C8.753,80.908346 8.571,81.4537178 8.393,82" id="Fill-21" fill="#BA1B21"></path>
            <path d="M5.31978426,57 C5.07778426,56.9033569 4.95078426,56.7930228 5.01778426,56.5755759 C5.15478426,56.1294071 5.27978426,55.6800169 5.40678426,55.2322373 C5.44478426,55.0937156 5.48678426,54.9656636 5.76678426,55.0083476 C5.83778426,55.6945133 5.82878426,56.3702094 5.31978426,57" id="Fill-23" fill="#BA1B21"></path>
            <path d="M38.3414081,59.6577558 C38.9686427,60.1895385 39.5246206,60.5528792 40.0084621,60.7486599 C41.263811,60.8412589 42.8077054,60.9135743 44.6392655,60.9656061 C46.4708257,61.0114646 48.5935705,61.0114646 51.0066202,60.9656061 C53.4205496,60.9135743 55.5424147,60.8650701 57.3748545,60.8183296 C59.2064147,60.7715892 60.7503091,60.7486599 62.0056579,60.7486599 C63.0648311,60.9400311 64.2946683,60.69751 65.6942899,60.0210965 C67.0947912,59.3455649 68.0853468,58.0632895 68.6659567,56.1760342 C69.2421679,54.2878969 69.0732633,52.6687376 68.1566035,51.3167925 C67.2408234,49.960438 66.1552589,49.0415033 64.8999101,48.5617524 C63.7422092,48.464744 62.3188354,48.3659717 60.631548,48.2680814 C58.9433808,48.170191 57.0141727,48.1472618 54.8430437,48.1984117 C52.6719148,48.2451521 50.7910908,48.3659717 49.2005717,48.5617524 C47.605654,48.7531237 46.2781688,48.9462587 45.2181159,49.1429213 L44.6392655,50.8837821 C44.6392655,50.976381 44.6630177,51.1210118 44.7087627,51.3167925 C44.759786,51.5072819 44.8811863,51.749803 45.071204,52.0443559 C45.2673798,52.3327356 45.4855483,52.5726111 45.7274691,52.7639823 C45.9693899,52.959763 46.185799,53.1070394 46.3758168,53.2049298 C47.3434999,53.1070394 48.5240732,53.0082672 49.9184166,52.9112588 C51.3180382,52.8124865 52.9367081,52.7401711 54.7735465,52.6943126 C56.6051066,52.6475721 58.2211374,52.6246429 59.6198793,52.6246429 L63.1633588,52.6246429 C63.2610068,52.7172418 63.3815273,52.8124865 63.5258001,52.9112588 C63.6700728,53.0082672 63.8143456,53.1070394 63.9586183,53.2049298 C64.1020114,53.2975288 64.2005391,53.3927734 64.2515624,53.4906638 C64.2973074,53.589436 64.3210596,53.6864445 64.3210596,53.7852167 L64.3210596,55.5260775 L63.7422092,56.1063645 L42.3238638,56.6866514 C42.2262158,56.588761 42.1312069,56.4908707 42.0388372,56.3920984 C41.9403094,56.29509 41.8426614,56.2218927 41.7450134,56.1760342 C41.6473654,56.1292937 41.5523565,56.1063645 41.459107,56.1063645 L41.166163,56.1063645 C40.6823214,55.6213222 40.2477437,54.9660742 39.8615502,54.1406204 C39.4762364,53.320458 39.3090912,52.3300899 39.3601145,51.1695161 C39.4058595,50.0089422 39.5738844,49.0185741 39.8615502,48.1984117 C40.155374,47.3729579 40.3964151,46.7212375 40.5873125,46.2414866 C41.0711541,45.9469337 41.6983887,45.7044125 42.4707757,45.5139232 C43.242283,45.3181425 44.1818153,45.2193703 45.2876132,45.2193703 L48.2592799,45.2193703 C49.1284353,45.2193703 49.8515585,45.1735117 50.4277697,45.0809127 C51.3954528,44.8842502 52.6015378,44.810171 54.0477842,44.8560295 C55.4940305,44.9071794 57.1813179,44.9336363 59.1105261,44.9336363 C61.040614,44.9336363 62.7287811,44.667304 64.1741477,44.1364032 C65.6256724,43.6055024 66.8317574,42.9529 67.7941622,42.1785962 C67.9894582,41.7923262 68.1821151,41.3072839 68.3730126,40.7243513 C68.5683086,40.14671 68.6659567,39.4711784 68.6659567,38.6968746 C68.6659567,37.9234527 68.5683086,37.2452754 68.3730126,36.6623428 C68.1821151,36.0847015 67.9894582,35.6023049 67.7941622,35.215153 C67.0226548,34.2459504 65.9854745,33.4460716 64.6835009,32.8163985 C63.3815273,32.1876074 44.1607022,31.9212751 42.2314941,32.0200473 C40.3022859,32.1179376 38.5886071,32.2387573 37.0913375,32.3833881 C35.5984664,32.5280188 34.3686292,32.5042077 33.4018258,32.3137183 C32.5317908,32.4071992 31.4462263,32.4292466 30.1442527,32.3833881 C28.8431588,32.3375295 27.3247761,32.2881434 25.5908639,32.2361116 C23.8516735,32.190253 18.8100447,32.2881434 17.5080711,32.5306645 C16.2060975,32.7731857 15.120533,33.0880222 14.2513777,33.4742922 C14.1528499,33.5677731 14.0815933,33.685947 14.0349685,33.8305778 C13.9883438,33.9796181 13.9883438,34.1498238 14.0349685,34.341195 C14.0815933,34.5369757 14.1299774,34.7071815 14.1818804,34.8518123 C14.2276255,34.996443 14.2513777,35.1172627 14.2513777,35.215153 C14.2513777,35.4056423 14.2997618,35.5996592 14.3974098,35.7954399 C14.4959376,35.9868112 14.6622031,36.1543712 14.8997253,36.299002 C15.1407664,36.4427509 15.3598147,36.5635705 15.5559904,36.6623428 C15.7460082,36.7602331 15.8902809,36.8581235 15.9879289,36.9560138 C17.4332956,36.8581235 22.7889816,36.7840443 25.0120135,36.7320125 C27.2297672,36.685272 29.8337144,36.685272 32.8229754,36.7320125 C35.8122364,36.7840443 38.417943,36.8325485 40.640975,36.878407 C42.8587286,36.9304388 62.2959629,36.9560138 63.7422092,36.9560138 L64.3210596,38.1165877 L64.3210596,38.4728733 C64.3210596,38.6219135 64.2973074,38.8159304 64.2515624,39.0531602 C64.2005391,39.2956813 64.127523,39.5382025 64.0351533,39.7798417 C63.9375052,40.0223628 63.8398572,40.2419547 63.7422092,40.4386173 L58.7480848,40.4386173 C56.7722519,40.4386173 54.5061141,40.4615466 51.9487916,40.5074051 C49.3914691,40.5541455 47.1710763,40.6264609 45.2876132,40.7243513 C43.4094283,40.8222416 41.8426614,40.920132 40.5873125,41.0180223 C39.6249077,41.4051742 38.6598638,42.0322016 37.6930604,42.8991044 C36.7306556,43.7704167 36.0075324,44.9565655 35.5236909,46.4575509 C35.0407291,47.9541268 34.7988083,49.2813788 34.7988083,50.4428346 L34.7988083,53.2049298 C34.8964563,53.5920817 35.0662407,54.1459118 35.3081615,54.8681838 C35.5500823,55.5957472 35.9591483,56.4414846 36.5353596,57.4062777 C37.1168491,58.3754804 37.7185721,59.1259731 38.3414081,59.6577558" id="Fill-25" fill="#BA1B21"></path>
            <path d="M63.8136929,71.4127024 C62.472014,71.4127024 60.7914123,71.4352707 58.7736393,71.4812754 C56.7549906,71.5264121 54.4009221,71.5750209 51.7123097,71.6262337 C49.0228215,71.6713704 46.6687531,71.6713704 44.6509801,71.6262337 C42.637586,71.5750209 40.9569843,71.5038438 39.6100507,71.4127024 L39.6100507,70.6965912 C39.6100507,70.4127507 39.6336965,70.0794335 39.6792365,69.6992436 C39.7300312,69.3181856 39.8044716,68.9831324 39.9025578,68.6940839 C39.9945136,68.4093755 40.0890967,68.1732758 40.1863071,67.9857848 C40.3816037,67.7930858 40.6452103,67.6021229 40.9780027,67.4146319 C41.3160498,67.2210649 41.7259099,67.0769747 42.2075831,66.9806251 C42.6840018,66.8894837 43.0912346,66.843479 43.4292816,66.843479 L44.2201015,66.843479 L59.7798985,66.843479 C60.0671509,66.7471295 60.450738,66.7210891 60.9324112,66.7670938 C61.4140844,66.8183066 61.9412977,67.0561423 62.5149267,67.483205 C63.0938104,67.9093997 63.5264405,68.3842031 63.8136929,68.9067472 C64.1009453,69.4353675 64.2927388,69.8893386 64.3899493,70.2703965 L63.8136929,71.4127024 Z M64.3899493,76.76661 L64.3899493,78.0460619 L64.3899493,79.4774163 L64.3899493,80.551149 C62.9510599,80.6431585 61.1732478,80.7134676 59.0573887,80.7646804 C56.9467841,80.8106851 54.5217783,80.8332534 51.7814955,80.8332534 C49.0455915,80.8332534 46.6687531,80.8558218 44.6509801,80.9018265 C42.637586,80.9521713 40.9569843,81.0259525 39.6100507,81.12317 L39.6100507,75.9819257 L44.6509801,75.9819257 L51.7814955,75.9819257 L59.0573887,75.9819257 L64.3899493,75.9819257 L64.3899493,76.76661 Z M68.7162507,83.689018 C68.6181645,80.8358575 68.5445999,78.3377145 68.4929294,76.195457 C68.4473894,74.0531996 68.4237437,72.2676957 68.4237437,70.8415494 C68.5209541,69.8867345 68.3063905,68.7678651 67.7783015,67.483205 C67.2510883,66.1985449 66.218556,65.0328027 64.6824563,63.9877144 C63.1454808,62.93655 61.7267342,62.3402247 60.4253406,62.1978705 C59.1292018,62.0555162 58.1457126,62.0815567 57.4748731,62.2742557 L52.8648224,62.2742557 C51.9067305,62.2742557 50.5387786,62.2004745 48.7618422,62.0529122 C46.9840301,61.910558 44.9426113,62.0555162 42.637586,62.486919 C40.3325606,62.9131136 38.5783943,63.768975 37.3742112,65.0536351 C36.1752827,66.3382951 35.3844628,67.6958683 35,69.1280907 L35,71.9838553 L35,73.1261611 L35,77.6953845 L35,78.8376903 L35,111.403823 L35,112.828233 L35,114.900181 L35,117.115352 L35,118.828811 L35.5762563,119.400832 L36.728769,120.543137 C36.9231899,120.543137 37.1386292,120.517097 37.3742112,120.466752 C37.6150478,120.420748 37.8812817,120.30183 38.1737887,120.109131 C38.4601654,119.920772 38.7246478,119.708108 38.9646086,119.469405 C39.2054452,119.230701 39.4208845,119.01717 39.6100507,118.828811 L39.6100507,118.182141 L39.6100507,117.397456 L39.6100507,116.612772 L39.6100507,115.973046 L39.6100507,85.6923933 C40.3789764,85.5951758 41.3388198,85.5213947 42.4913325,85.4710499 C43.6438451,85.4259132 44.9890271,85.4024768 46.5251269,85.4024768 C48.0621024,85.4024768 49.4064086,85.3799084 50.559797,85.3339037 C51.7123097,85.2826909 52.6721531,85.2123818 53.4410787,85.1203724 L64.3899493,85.1203724 L64.3899493,87.5429982 L64.3899493,125.574144 L64.3899493,128.856971 L64.3899493,131.286541 C64.3899493,131.377683 64.413595,131.494864 64.459135,131.637219 C64.5099297,131.783913 64.6307859,131.95144 64.8199521,132.138931 C65.0152487,132.332498 65.2324395,132.500024 65.4732762,132.642378 C65.7141128,132.784733 65.9295521,132.90365 66.1187183,133 C66.2159287,133 66.3849522,132.974828 66.6257888,132.923615 C66.8666255,132.878478 67.1792752,132.758692 67.563738,132.565993 C67.947325,132.377634 68.2573474,132.164971 68.4929294,131.926267 C68.7337661,131.686695 68.9027896,131.474032 69,131.286541 C69,129.855187 68.97723,128.067947 68.9308142,125.924822 C68.8800196,123.787772 68.8082065,86.5473867 68.7162507,83.689018 Z" id="Fill-27" fill="#BA1B21"></path>
            <path d="M95.3553384,42.193112 L91.9012962,42.193112 C90.5366622,42.193112 88.9610288,42.2156373 87.1752538,42.2615541 C85.3843324,42.307471 83.8069836,42.3785122 82.4423496,42.4746777 C81.0828619,42.5708432 79.9309426,42.6670088 78.9874496,42.7631743 C77.8595466,42.7631743 76.7076273,43.095855 75.5342651,43.7594837 C74.3548988,44.4231125 73.4594381,45.6108866 72.8470253,47.3236725 C72.2406166,49.0321266 71.9592842,50.597632 72.0047434,52.0219213 C72.0502026,53.4505424 72.119678,54.5447501 72.214885,55.3054107 L72.214885,55.6545522 C72.214885,55.8018327 72.2380435,55.9915647 72.2835027,56.2246144 C72.3332505,56.4628624 72.4061568,56.7011103 72.5013638,56.9393582 C72.5914245,57.1776061 72.6840584,57.3924624 72.7792654,57.5856598 C73.1558049,58.7257843 73.8153923,59.7922686 74.7588853,60.7851126 C75.697232,61.7840212 76.9889598,62.4268573 78.6340686,62.7162203 C80.2800351,63.000385 81.7150022,63.0705599 82.93897,62.9293439 C84.1629378,62.7872615 85.1038577,62.7162203 85.7608719,62.7162203 C86.6083002,62.6200547 87.6675856,62.5715388 88.9361549,62.5715388 L93.3088163,62.5715388 C94.953925,62.5715388 96.3665914,62.4753733 97.5451,62.2830422 C98.71932,62.0959093 99.6825406,61.8602605 100.434762,61.5760957 C100.434762,61.4799302 100.45792,61.3612394 100.502522,61.2182907 C100.553127,61.0770746 100.626034,60.9098679 100.721241,60.7166705 C100.811301,60.5295376 100.881635,60.3623309 100.931382,60.2150504 C100.976842,60.0738343 101,59.9568763 101,59.8659089 L99.8703815,58.7257843 C99.2133673,58.5325869 98.4131136,58.3887718 97.4704783,58.2926063 C96.5321316,58.2016389 95.4505455,58.1782473 94.2265777,58.2241642 C93.0026099,58.2692147 91.9218815,58.2926063 90.9835348,58.2926063 C90.0400417,58.2926063 89.2397881,58.2466894 88.5827738,58.1557221 C87.9257596,58.0586902 87.0800467,58.0820818 86.0456353,58.2241642 C85.0086507,58.3653802 83.8069836,58.4849374 82.4423496,58.5811029 C81.0828619,58.6772684 79.9309426,58.5100617 78.9874496,58.0794827 C78.0499606,57.6541019 77.2968816,57.109164 76.7307858,56.4455352 L76.7307858,54.7353484 L78.1451676,54.7353484 L80.184828,54.7353484 L82.3745896,54.7353484 L84.0677308,54.7353484 L93.0978169,54.7353484 L94.2265777,54.7353484 L95.9874788,54.7353484 L97.8993388,54.7353484 L99.3060011,54.7353484 L99.6602399,54.3775434 L100.15686,53.8759232 C100.342128,53.6887903 100.505095,53.5215836 100.645761,53.3743031 C100.786427,53.2322207 100.903935,53.116129 101,53.0242952 L101,52.4550993 C100.903935,52.2627683 100.786427,52.0470456 100.645761,51.8087977 C100.505095,51.5705498 100.342128,51.3574262 100.15686,51.1702933 C99.9655885,50.9779623 99.8009061,50.8584051 99.6602399,50.8133546 C99.5195736,50.7674377 99.4012082,50.7449125 99.3060011,50.7449125 C97.9919726,50.8358799 96.3691646,50.8809304 94.437577,50.8809304 C92.5111358,50.8809304 90.3007889,50.8358799 87.8073941,50.7449125 C85.3139993,50.6478806 83.1499694,50.600231 81.3135888,50.600231 C79.4823546,50.600231 77.9547536,50.6478806 76.7307858,50.7449125 L76.7307858,49.9539294 C76.7307858,49.6247141 76.8011189,49.2443838 76.9409274,48.8138049 C77.0815937,48.3884241 77.2943085,48.0566097 77.5807872,47.8183618 C77.861262,47.5801139 78.1425945,47.4155062 78.4239269,47.3236725 C79.3665623,47.4155062 80.5433554,47.4614231 81.9534486,47.4614231 C83.3626842,47.4614231 85.0086507,47.4155062 86.8896327,47.3236725 C88.7706147,47.2283733 90.4165812,47.1798574 91.8258167,47.1798574 C93.2410563,47.1798574 94.4169917,47.2283733 95.3553384,47.3236725 C96.5793062,46.848043 97.803274,46.0146085 99.0280995,44.8233689 C100.246921,43.6373275 100.881635,42.0718222 100.931382,40.1259865 C100.976842,38.1749527 100.434762,36.5583323 99.3060011,35.2761254 C98.1780981,33.9947848 97.0484796,33.0695165 95.9197188,32.5020533 C94.695751,32.3097223 93.16815,32.1650408 91.3369158,32.0688753 C89.5005353,31.9770416 87.3613792,31.9770416 84.9177322,32.0688753 C82.4697966,32.1650408 80.3272097,32.2612063 78.4908292,32.3573719 C76.6604527,32.4535374 75.1328517,32.5020533 73.9088839,32.5020533 L72.214885,33.0721156 L72.214885,33.4212571 L72.214885,33.9921857 L72.214885,34.7060631 L72.214885,35.3523647 C72.214885,35.4433321 72.2380435,35.5602902 72.2835027,35.7023725 C72.3332505,35.8487867 72.4284575,35.9934682 72.5691238,36.1355506 C72.70979,36.2767666 72.8495985,36.3711994 72.9902647,36.4171163 C73.130931,36.4673649 73.2484387,36.4924893 73.3436458,36.4924893 C74.5684713,36.5834566 76.0737715,36.6544978 77.8595466,36.7056128 C79.6453216,36.7506634 81.7150022,36.7506634 84.0677308,36.7056128 C86.4204593,36.6544978 88.49014,36.6068482 90.275915,36.5609314 C92.06169,36.5150145 93.5669903,36.4924893 94.7909581,36.4924893 C94.9813721,36.6796222 95.1923715,36.8927457 95.4230984,37.1309937 C95.6589717,37.3692416 95.8725442,37.6300147 96.0629582,37.9141795 C96.2490837,38.1974779 96.3665914,38.4582511 96.4163393,38.696499 C96.4617985,38.9347469 96.4840992,39.1504696 96.4840992,39.3428006 L96.4840992,40.4829252 L95.3553384,42.193112 Z" id="Fill-29" fill="#BA1B21"></path>
            <path d="M117.846891,94.6974421 C117.656606,94.5995253 117.440891,94.524544 117.200624,94.4733803 C116.958603,94.4266273 116.718335,94.4266273 116.47719,94.4733803 C116.235169,94.524544 116.04313,94.5739435 115.899321,94.6206965 C115.755511,94.6718602 115.636254,94.6974421 115.538042,94.6974421 L99.9601101,94.6974421 L98.4430922,94.6974421 C97.8169935,94.6974421 97.1198668,94.5765899 96.3499583,94.3340033 C95.5809267,94.0914167 77.431956,93.7270958 77.0022804,93.2428048 C76.5717279,92.7576316 76.2578017,92.2751048 76.0640092,91.7952245 L76.6401253,88.8930069 L99.7198426,88.8930069 C99.8171772,88.7950901 99.9162657,88.6733557 100.012723,88.5295681 C100.105674,88.3848982 100.200378,88.2146466 100.296835,88.018813 C100.395924,87.8273902 100.492382,87.6571385 100.589716,87.508058 C100.682667,87.3633882 100.776494,87.2443003 100.875582,87.1516763 C100.875582,87.0537595 100.851029,86.9320252 100.804554,86.7882375 C100.754572,86.6435677 100.682667,86.473316 100.589716,86.2774825 C100.492382,86.0860596 100.418723,85.9158079 100.36611,85.7658453 C100.321388,85.6211755 100.296835,85.5029697 100.296835,85.4103457 C100.296835,85.312429 100.274913,85.2145122 100.227561,85.1157133 C100.177579,85.0177965 100.105674,84.9454616 100.012723,84.8995907 C99.9162657,84.8528377 99.8417301,84.8299022 99.7891168,84.8299022 L99.7198426,84.8299022 C98.3773256,84.6331865 96.7173748,84.4867525 94.7426208,84.3879536 C92.7731282,84.2953296 90.4914632,84.2953296 87.8958719,84.3879536 C85.2958961,84.4867525 83.0098466,84.5846692 81.040354,84.682586 C79.0708614,84.7805028 77.4126644,84.8299022 76.0640092,84.8299022 L76.0640092,84.1021425 L76.0640092,83.0885716 L76.0640092,82.0670616 L76.0640092,81.3472411 C76.160467,81.2484422 76.2814777,81.1275899 76.4252875,80.9829201 C76.5690973,80.8391324 76.7374599,80.6688808 76.9330062,80.4730472 C77.1224142,80.2816244 77.2890231,80.1113727 77.431956,79.9614101 C77.5757658,79.8167403 77.6967764,79.6985345 77.7941111,79.6059105 C78.6604774,79.4091948 79.7434353,79.2398253 81.040354,79.0951555 C82.3390266,78.9504857 83.8534138,78.8781508 85.5879002,78.8781508 C87.3162483,78.8781508 88.8288817,78.9010862 90.1275543,78.9478393 C91.424473,78.9998851 92.5074309,79.0245848 93.3737972,79.0245848 C94.5269062,79.0245848 95.8510085,78.5888111 97.3425966,77.7172637 C98.8298003,76.8448342 99.8882052,75.4184251 100.51255,73.4371543 C101.138649,71.4505908 100.994839,69.7815951 100.081998,68.4301673 C99.1691563,67.0725646 98.0870753,66.1542642 96.8348779,65.6743838 C95.3950262,65.4785503 93.6140648,65.3082986 91.495501,65.1636288 C89.3839524,65.018959 86.95497,64.9704417 84.2111845,65.0171947 C81.4726603,65.0683584 79.0919068,65.1662752 77.0715546,65.310945 C75.05471,65.4556148 73.3737139,65.576467 72.0241818,65.6743838 L71.446312,66.8352709 L71.446312,67.9961579 L72.0241818,69.1570449 C72.2188511,69.1570449 72.4336889,69.1808625 72.6695721,69.2267335 C72.9107165,69.2734865 73.1790446,69.3458214 73.4710486,69.4437382 C73.7577913,69.5416549 74.020858,69.6139898 74.2620024,69.6607429 C74.5031469,69.7119066 74.7188616,69.7374885 74.9091465,69.7374885 L91.0658255,69.7374885 L91.788382,69.7374885 L92.8660785,69.7374885 L94.0972306,69.7374885 L95.1038991,69.7374885 L96.2587618,71.478819 C96.2587618,71.5723251 96.2350858,71.690531 96.1894876,71.8352008 C96.1377512,71.9842813 96.0658463,72.1783505 95.9746498,72.4156443 C95.8755614,72.6582309 95.8019027,72.9008175 95.7510431,73.1425219 C95.7054449,73.3851085 95.6817689,73.6047596 95.6817689,73.8014753 L95.1038991,74.3810367 L91.8576562,74.3810367 L87.318879,74.3810367 L82.7722097,74.3810367 L79.5259668,74.3810367 C78.181696,74.4745428 76.7865657,74.980005 75.3396989,75.8983054 C73.8980935,76.8218987 72.7940903,78.3462245 72.0241818,80.4730472 C71.2551502,82.6033985 70.9184248,84.5149807 71.0166364,86.2069118 C71.1139711,87.8997251 71.2577809,89.1823465 71.446312,90.0538939 C71.446312,90.4411503 71.5182169,91.0445293 71.6629036,91.864913 C71.8067133,92.6852967 72.1916676,93.6759321 72.8160125,94.8368191 C73.4421112,95.9977062 74.1637909,96.8930712 74.9775438,97.5229141 C75.7991888,98.151875 76.5445444,98.5647132 77.2179951,98.7605468 C78.4693156,98.8531707 97.6056633,98.9255056 99.5278039,98.9775515 C101.451698,99.0243045 103.711441,98.9978405 106.306155,98.8999238 C108.901747,98.8072998 111.160613,98.6855655 113.08363,98.536485 C115.008401,98.3918152 116.594694,98.2736093 117.846891,98.1801032 L119,97.0192162 L117.846891,94.6974421 Z" id="Fill-31" fill="#BA1B21"></path>
        </g>
    </g>
</svg>