<?xml version="1.0" encoding="utf-8"?>
<!-- Generator: Adobe Illustrator 23.0.1, SVG Export Plug-In . SVG Version: 6.00 Build 0)  -->
<svg version="1.1" id="图层_1" xmlns="http://www.w3.org/2000/svg" xmlns:xlink="http://www.w3.org/1999/xlink" x="0px" y="0px"
	 viewBox="0 0 361 211" style="enable-background:new 0 0 361 211;" xml:space="preserve">
<style type="text/css">
	.st0{fill:#E05255;}
	.st1{fill:#232323;}
</style>
<path class="st0" d="M122.9,128.9c-0.2-0.1-0.4-0.2-0.6-0.2c-0.2,0-0.4,0-0.7,0c-0.2,0-0.4,0.1-0.5,0.1c-0.1,0-0.2,0.1-0.3,0.1
	h-14.3h-1.4c-0.6,0-1.2-0.1-1.9-0.3c-0.7-0.2-17.4-0.6-17.8-1c-0.4-0.4-0.7-0.9-0.9-1.3l0.5-2.6h21.2c0.1-0.1,0.2-0.2,0.3-0.3
	c0.1-0.1,0.2-0.3,0.3-0.5c0.1-0.2,0.2-0.3,0.3-0.5c0.1-0.1,0.2-0.2,0.3-0.3c0-0.1,0-0.2-0.1-0.3c0-0.1-0.1-0.3-0.2-0.5
	c-0.1-0.2-0.2-0.3-0.2-0.5c0-0.1-0.1-0.2-0.1-0.3c0-0.1,0-0.2-0.1-0.3c0-0.1-0.1-0.2-0.2-0.2c-0.1,0-0.2-0.1-0.2-0.1h-0.1
	c-1.2-0.2-2.8-0.3-4.6-0.4c-1.8-0.1-3.9-0.1-6.3,0c-2.4,0.1-4.5,0.2-6.3,0.3c-1.8,0.1-3.3,0.1-4.6,0.1v-0.7v-0.9v-0.9v-0.7
	c0.1-0.1,0.2-0.2,0.3-0.3c0.1-0.1,0.3-0.3,0.5-0.5c0.2-0.2,0.3-0.3,0.5-0.5c0.1-0.1,0.2-0.2,0.3-0.3c0.8-0.2,1.8-0.3,3-0.5
	c1.2-0.1,2.6-0.2,4.2-0.2c1.6,0,3,0,4.2,0.1c1.2,0,2.2,0.1,3,0.1c1.1,0,2.3-0.4,3.6-1.2c1.4-0.8,2.3-2.1,2.9-3.9
	c0.6-1.8,0.4-3.3-0.4-4.6c-0.8-1.2-1.8-2.1-3-2.5c-1.3-0.2-3-0.3-4.9-0.5c-1.9-0.1-4.2-0.2-6.7-0.1c-2.5,0-4.7,0.1-6.6,0.3
	c-1.9,0.1-3.4,0.2-4.6,0.3l-0.5,1.1v1.1l0.5,1.1c0.2,0,0.4,0,0.6,0.1c0.2,0,0.5,0.1,0.7,0.2c0.3,0.1,0.5,0.2,0.7,0.2
	c0.2,0,0.4,0.1,0.6,0.1h14.8H99h1h1.1h0.9l1.1,1.6c0,0.1,0,0.2-0.1,0.3c0,0.1-0.1,0.3-0.2,0.5c-0.1,0.2-0.2,0.4-0.2,0.7
	c0,0.2-0.1,0.4-0.1,0.6l-0.5,0.5h-3h-4.2h-4.2h-3c-1.2,0.1-2.5,0.5-3.8,1.4c-1.3,0.8-2.3,2.2-3,4.2c-0.7,1.9-1,3.7-0.9,5.2
	c0.1,1.5,0.2,2.7,0.4,3.5c0,0.4,0.1,0.9,0.2,1.7c0.1,0.7,0.5,1.7,1.1,2.7c0.6,1.1,1.2,1.9,2,2.5c0.8,0.6,1.4,1,2.1,1.1
	c1.1,0.1,18.7,0.2,20.5,0.2c1.8,0,3.8,0,6.2-0.1c2.4-0.1,4.5-0.2,6.2-0.3c1.8-0.1,3.2-0.2,4.4-0.3l1.1-1.1L122.9,128.9z"/>
<path class="st0" d="M84.3,166.2c0-0.3-0.1-0.4-0.4-0.3c-1.1,0.1-2.1,0.3-3.2,0.4c-2,0.2-4,0.3-6,0.2c-2.3-0.1-4.6-0.5-6.9-1
	c-0.2-0.1-0.4-0.1-0.6-0.2c0-0.7-0.5-1-1.1-1.2c-0.7-0.2-1.4-0.3-2-0.5c-2.1-0.5-4.1-1.1-6.1-1.8c-8.6-3.1-16.1-7.8-22.5-14.3
	c-2.8-2.9-5.4-6-7.6-9.4c-1.2-1.8-2.4-3.7-3.6-5.5c0,0-0.1-0.1-0.2-0.2c-0.1,0.7-0.1,1.3-0.2,2c0,0-0.1,0-0.1,0
	c-0.8-0.9-1.6-1.8-2.4-2.8c-0.9-1.2-1.4-2.5-1.7-4c-0.1-0.6-0.2-1.1-0.5-1.7c-1.9-4.1-3.1-8.4-4-12.9c-0.3-1.4-0.4-2.7-0.7-4.1
	c-0.1-0.7,0-1.8,0.2-2.4c0.6,4.7,1.6,9.1,3.2,13.5c0.2-0.1,0.2-0.2,0.1-0.3c-0.2-0.8-0.4-1.5-0.6-2.3c-0.6-2.4-1-4.9-1.3-7.4
	c-0.3-2.4-0.5-4.9-0.6-7.3c0-0.8,0-1.6,0-2.4c0-1.9,0.3-3.7,1.1-5.4c0.6-1.4,1-2.8,1.3-4.2c1.1-4.1,2.4-8.1,4.1-12
	c3.2-7.2,7.6-13.7,13.2-19.3c7-6.9,15.2-11.5,24.7-14.1c2.7-0.7,5.5-1.2,8.2-1.5c0.8-0.1,1.5-0.1,2.3-0.2c0.8,0,1.6-0.2,2.4-0.3
	c2.2-0.4,4.5-0.5,6.8-0.4c12.2,0.9,23,5.4,32.3,13.3c1.3,1.1,2.5,2.3,3.8,3.5c0.2,0.1,0.3,0.3,0.4,0.5c0.1,0.1,0.1,0.3,0.1,0.4
	c0,0.6,0.2,1.1,0.5,1.6c0.4,0.5,0.8,1.1,1.3,1.6c0.4,0.5,0.8,1,1.3,1.5c0.2,0.2,0.3,0.4,0.5,0.7c-0.1,0.1-0.2,0.2-0.3,0.2
	c-0.1,0-0.1-0.1-0.2-0.1c-0.8-0.9-1.7-1.7-2.5-2.6c-0.3-0.3-0.6-0.6-1-0.9c-3.5-2.6-7.1-5.1-10.8-7.3c-3.7-2.2-7.5-4.1-11.6-5.5
	c-2.7-0.9-5.6-1.6-8.4-2c-3.3-0.5-6.7-0.7-10.1-0.6c-13.6,0.4-26.7,6.1-36,15.5C32,69.9,27.3,78.5,24.8,88.2
	c-0.8,3.2-1.3,6.4-1.5,9.6c-0.2,3.1-0.2,6.3,0,9.4c0.5,6.5,2.1,12.8,4.8,18.8c3.5,7.7,8.5,14.1,15.1,19.4c6.2,5,13.2,8.5,21,10.4
	c2.3,0.6,4.6,1,7,1.2c2.9,0.3,5.7,0.4,8.6,0.3c4.3-0.2,8.5-0.8,12.6-2.1c0.1,0,0.2-0.1,0.3-0.1c0,0,0,0,0.1-0.1
	c-0.2,0-0.3,0-0.4,0.1c-2.6,0.5-5.2,0.9-7.9,1.2c-3,0.3-6,0.4-9,0.2c-5.1-0.3-10.1-1.2-14.8-3.1c-0.3-0.1-0.6-0.3-1-0.4
	c0-0.1,0.1-0.2,0.1-0.3c6.8,2.6,13.8,3.7,21.1,3.3c7.2-0.4,14.1-2.3,20.6-5.7c-0.1,0.3-0.3,0.5-0.5,0.7c-0.5,0.3-1,0.6-1.6,1
	c-0.6,0.3-1.1,0.6-1.7,1c-0.1,0.1-0.2,0.2-0.4,0.3c0,0,0,0.1,0.1,0.1c0.1-0.1,0.3-0.1,0.4-0.2c3.7-1.4,7-3.5,10.1-5.9
	c2.9-2.3,5.5-4.8,7.9-7.6c0.7-0.7,1.3-1.5,2-2.3c-0.1-0.1-0.2-0.1-0.3-0.2c-0.1,0.1-0.2,0.1-0.3,0.2c-1.4,1.3-2.8,2.7-4.2,4
	c-1,0.9-2,1.7-3.1,2.6c-0.8,0.6-1.7,1.2-2.7,1.5c-0.1,0-0.2,0-0.3,0c0.1-0.1,0.2-0.2,0.3-0.3c1-0.8,2.1-1.5,3.1-2.3
	c0.6-0.5,1.1-1.1,1.6-1.8c0.3-0.4,0.7-0.8,1.1-1.2c1.1-1.1,2.2-2.2,3.3-3.3c0.4-0.4,0.7-0.8,1-1.2c0.4-0.6,0.7-1.2,0.7-1.9
	c0-0.4,0.2-0.6,0.5-0.9c1.6-2.1,3-4.3,4.3-6.6c0.3-0.6,0.6-1.2,1-1.8c0.1,0.1,0.2,0.1,0.4,0.2c-1.4,3-3.1,5.7-5,8.4
	c0.1,0.1,0.2,0.2,0.3,0.3c0.1-0.1,0.2-0.2,0.3-0.3c2.9-3.9,5.3-8.2,7-12.7c0.4-1,0.8-2,1.1-3.1c0.4-1.1,0.7-2.3,0.8-3.4
	c0-0.5,0-1,0-1.6c0.1-0.9,0.3-1.8,0.4-2.7c0.1-0.5,0.2-1,0.3-1.5c1.4,0.1,2.9,0.3,4.4,0.4c0.5-1.7,0.9-3.3,1.2-5.1
	c0.3,0.3,0.4,0.6,0.6,0.9c0.2,0.3,0.4,0.7,0.6,1c0.2,0.3,0.4,0.6,0.6,1c0.3-0.6,0.6-1.1,0.9-1.7c0.2,0.2,0.3,0.3,0.4,0.5
	c0.5,0.8,0.8,1.7,1,2.6c0.3,1.5,0.2,3.1,0,4.6c-0.4,3.4-1.4,6.6-2.4,9.8c-1.1,3.5-2.6,6.9-4.2,10.2c-0.7,1.5-1.4,3-2.1,4.6
	c-0.6,1.3-1.3,2.6-2.2,3.7c-4.4,5.9-9.4,11.3-15.5,15.6c-6.6,4.7-13.9,8.1-21.8,10c-2.5,0.6-5,1.2-7.6,1.6c-2.3,0.4-4.6,0.8-6.9,0.7
	c-1.2,0-2.4-0.2-3.6-0.6c-0.1,0-0.2-0.1-0.3-0.2C76.4,167.2,80.4,166.9,84.3,166.2 M85.4,45.6c0-0.1,0.1-0.2,0.2-0.4
	c-0.4-0.1-0.7-0.1-1-0.2c-1-0.2-1.9-0.3-2.9-0.5c-0.5-0.1-0.5-0.1-0.7,0.3C82.5,45,83.9,45.3,85.4,45.6 M46.9,150.3
	c-1.5-1.7-3.3-3-5.2-4.2C43.3,147.6,45.1,149,46.9,150.3 M91.4,46.7C91.4,46.7,91.4,46.7,91.4,46.7c1.2,0.5,2.3,0.8,3.5,1.2
	c1.2,0.4,2.3,0.9,3.4,1.3c1.1,0.5,2.2,1,3.4,1.5l0-0.1C98.5,49,95,47.7,91.4,46.7 M84.2,160.6c1.4-0.2,2.7-0.4,4-0.7
	C86.6,159.8,85.5,159.9,84.2,160.6 M29.9,69.6c-0.8,0.4-1.8,2.1-2,3C28.8,71.7,29.5,70.8,29.9,69.6 M21.8,118.1
	c0.1-0.5,0.3-1,0.4-1.4c0-0.1,0-0.2,0-0.2c-0.2-0.3-0.4-0.7-0.6-1c0,0-0.1,0-0.1,0C21.6,116.4,21.6,117.3,21.8,118.1 M19.2,94.6
	c0.4-0.6,0.4-1.3,0.4-2c-0.2,0-0.3,0.1-0.3,0.2c-0.1,0.4-0.2,0.9-0.3,1.3C18.9,94.4,19,94.5,19.2,94.6"/>
<path class="st0" d="M34.9,70.9c-0.6,1.1-1.3,2.3-1.9,3.4c-2.7,4.9-4.7,10-6,15.4c-0.6,2.6-1,5.1-1.2,7.7c-0.3,2.9-0.3,5.7-0.1,8.6
	c0.4,7.2,2.2,14.1,5.2,20.7c1.2,2.6,2.6,5.2,4.1,7.7c0.2,0.4,0.4,0.7,0.6,1.1c-0.1-0.1-0.2-0.1-0.3-0.2c-0.9-0.7-1.5-1.5-2.1-2.5
	c-2-3.2-3.6-6.6-4.9-10.2c-1.4-3.6-2.3-7.4-2.9-11.2c-0.5-3.5-0.8-7-0.7-10.5c0.3-10.1,3-19.5,8.4-28C33.7,72.3,34.3,71.6,34.9,70.9
	C34.8,70.8,34.9,70.9,34.9,70.9"/>
<path class="st0" d="M133.1,95.4c0.3,2.4,0.4,4.7,0.4,7.1c-0.1-0.1-0.1-0.2-0.2-0.3c-0.3-0.8-0.4-1.5-0.5-2.4
	c-0.1-0.9-0.1-1.7-0.1-2.6c-0.1-1.4-0.4-2.8-0.7-4.1c-0.4-1.5-0.8-3-1-4.5c-0.1-0.4-0.1-0.8-0.1-1.2c0.8,0.4,1.7,1.4,2,2.2
	c0.4,1.2,0.8,2.5,1.2,3.7c0.4,1.5,0.7,2.9,0.6,4.5c0,0.3-0.1,0.6-0.1,0.9c-0.3-0.5-0.4-1.1-0.6-1.7
	C133.6,96.5,133.4,95.9,133.1,95.4C133.1,95.4,133.1,95.4,133.1,95.4"/>
<path class="st0" d="M122.3,68c3,3.4,5.4,7,6.7,11.2C127.4,78.2,122.7,70.3,122.3,68"/>
<path class="st0" d="M14.8,101.5c-0.3-0.2-0.5-0.3-0.7-0.4c0.4-4.4,1.2-8.7,2.5-13c0.1,0.1,0.2,0.2,0.3,0.2c-0.6,2.1-1,4.3-1.3,6.5
	C15.4,97.1,15.1,99.3,14.8,101.5"/>
<path class="st0" d="M85.4,45.6c-1.5-0.3-2.9-0.5-4.3-0.8c0.2-0.4,0.2-0.4,0.7-0.3c1,0.1,1.9,0.3,2.9,0.5c0.3,0.1,0.6,0.1,1,0.2
	C85.5,45.3,85.4,45.4,85.4,45.6"/>
<path class="st0" d="M46.9,150.3c-1.9-1.3-3.6-2.7-5.2-4.2C43.6,147.3,45.4,148.6,46.9,150.3"/>
<path class="st0" d="M91.4,46.7c3.6,1,7,2.3,10.3,4l0,0.1c-1.1-0.5-2.2-1-3.4-1.5c-1.1-0.5-2.3-0.9-3.4-1.3
	C93.8,47.5,92.6,47.2,91.4,46.7C91.4,46.8,91.4,46.7,91.4,46.7"/>
<path class="st0" d="M84.2,160.6c1.3-0.7,2.4-0.9,4-0.7C86.9,160.3,85.6,160.5,84.2,160.6"/>
<path class="st0" d="M29.9,69.6c-0.5,1.2-1.1,2.1-2,3C28.1,71.7,29.2,70,29.9,69.6"/>
<path class="st0" d="M21.8,118.1c-0.2-0.9-0.2-1.7-0.3-2.6c0,0,0.1,0,0.1,0c0.2,0.3,0.4,0.7,0.6,1c0,0.1,0,0.1,0,0.2
	C22.1,117.2,22,117.6,21.8,118.1"/>
<path class="st0" d="M19.2,94.6c-0.2-0.1-0.3-0.2-0.2-0.4c0.1-0.4,0.2-0.9,0.3-1.3c0-0.1,0.1-0.3,0.3-0.2
	C19.7,93.3,19.7,94,19.2,94.6"/>
<path class="st0" d="M49.2,96.7c0.6,0.5,1.1,0.8,1.5,1c1.1,0.1,2.6,0.2,4.2,0.2c1.7,0,3.6,0,5.8,0c2.2,0,4.1-0.1,5.8-0.1
	c1.7,0,3.1-0.1,4.2-0.1c1,0.2,2.1,0,3.4-0.7c1.3-0.6,2.2-1.8,2.7-3.5c0.5-1.7,0.4-3.2-0.5-4.4c-0.8-1.2-1.8-2.1-3-2.5
	c-1.1-0.1-2.4-0.2-3.9-0.3c-1.5-0.1-3.3-0.1-5.3-0.1c-2,0-3.7,0.2-5.2,0.3c-1.5,0.2-2.7,0.4-3.6,0.5l-0.5,1.6c0,0.1,0,0.2,0.1,0.4
	c0,0.2,0.2,0.4,0.3,0.7c0.2,0.3,0.4,0.5,0.6,0.7c0.2,0.2,0.4,0.3,0.6,0.4c0.9-0.1,2-0.2,3.2-0.3c1.3-0.1,2.8-0.2,4.4-0.2
	c1.7,0,3.2-0.1,4.4-0.1h3.2c0.1,0.1,0.2,0.2,0.3,0.3c0.1,0.1,0.3,0.2,0.4,0.3c0.1,0.1,0.2,0.2,0.3,0.3c0,0.1,0.1,0.2,0.1,0.3v1.6
	l-0.5,0.5L52.8,94c-0.1-0.1-0.2-0.2-0.3-0.3c-0.1-0.1-0.2-0.2-0.3-0.2c-0.1,0-0.2-0.1-0.3-0.1h-0.3c-0.4-0.4-0.8-1-1.2-1.8
	c-0.4-0.7-0.5-1.7-0.5-2.7c0-1.1,0.2-2,0.5-2.7c0.3-0.8,0.5-1.3,0.7-1.8c0.4-0.3,1-0.5,1.7-0.7c0.7-0.2,1.6-0.3,2.6-0.3h2.7
	c0.8,0,1.5,0,2-0.1c0.9-0.2,2-0.2,3.3-0.2c1.3,0,2.9,0.1,4.6,0.1c1.8,0,3.3-0.2,4.6-0.7c1.3-0.5,2.4-1.1,3.3-1.8
	c0.2-0.4,0.4-0.8,0.5-1.3c0.2-0.5,0.3-1.1,0.3-1.8c0-0.7-0.1-1.3-0.3-1.9c-0.2-0.5-0.4-1-0.5-1.3c-0.7-0.9-1.7-1.6-2.8-2.2
	c-1.2-0.6-18.8-0.8-20.5-0.7c-1.8,0.1-3.3,0.2-4.7,0.3c-1.4,0.1-2.5,0.1-3.4-0.1c-0.8,0.1-1.8,0.1-3,0.1c-1.2,0-2.6-0.1-4.2-0.1
	c-1.6,0-6.2,0-7.4,0.3c-1.2,0.2-2.2,0.5-3,0.9c-0.1,0.1-0.2,0.2-0.2,0.3c0,0.1,0,0.3,0,0.5c0,0.2,0.1,0.3,0.1,0.5
	c0,0.1,0.1,0.2,0.1,0.3c0,0.2,0,0.4,0.1,0.5c0.1,0.2,0.2,0.3,0.5,0.5c0.2,0.1,0.4,0.2,0.6,0.3c0.2,0.1,0.3,0.2,0.4,0.3
	c1.3-0.1,6.2-0.2,8.3-0.2c2,0,4.4,0,7.1,0c2.7,0,5.1,0.1,7.2,0.1c2,0,19.8,0.1,21.1,0.1l0.5,1.1v0.3c0,0.1,0,0.3-0.1,0.5
	c0,0.2-0.1,0.4-0.2,0.7c-0.1,0.2-0.2,0.4-0.3,0.6h-4.6c-1.8,0-3.9,0-6.2,0.1c-2.3,0-4.4,0.1-6.1,0.2c-1.7,0.1-3.2,0.2-4.3,0.3
	c-0.9,0.4-1.8,0.9-2.6,1.7c-0.9,0.8-1.5,1.9-2,3.2c-0.4,1.4-0.7,2.6-0.7,3.6v2.5c0.1,0.4,0.2,0.9,0.5,1.5c0.2,0.7,0.6,1.4,1.1,2.3
	C48.1,95.5,48.6,96.2,49.2,96.7"/>
<path class="st0" d="M77.4,119.6c-0.1-2.6-0.2-5-0.2-6.9c0-2-0.1-3.6-0.1-5c0.1-0.9-0.1-1.9-0.6-3.1c-0.5-1.2-1.4-2.3-2.8-3.2
	c-1.4-1-2.7-1.5-3.9-1.7c-1.2-0.1-2.1-0.1-2.7,0.1h-4.2c-0.9,0-2.1-0.1-3.8-0.2c-1.6-0.1-3.5,0-5.6,0.4c-2.1,0.4-3.7,1.2-4.8,2.4
	c-1.1,1.2-1.8,2.4-2.2,3.8v2.6v1.1v4.2v1.1v30.2v1.3v1.9v2.1v1.6l0.5,0.5l1.1,1.1c0.2,0,0.4,0,0.6-0.1c0.2,0,0.5-0.2,0.7-0.3
	c0.3-0.2,0.5-0.4,0.7-0.6c0.2-0.2,0.4-0.4,0.6-0.6v-0.6v-0.7v-0.7v-0.6v-28.1c0.7-0.1,1.6-0.2,2.6-0.2c1.1,0,2.3-0.1,3.7-0.1
	c1.4,0,2.6,0,3.7-0.1c1.1,0,1.9-0.1,2.6-0.2h10.1v2.2v35.3v3v2.3c0,0.1,0,0.2,0.1,0.3c0,0.1,0.2,0.3,0.3,0.5
	c0.2,0.2,0.4,0.3,0.6,0.5c0.2,0.1,0.4,0.2,0.6,0.3c0.1,0,0.2,0,0.5-0.1c0.2,0,0.5-0.2,0.9-0.3c0.4-0.2,0.6-0.4,0.9-0.6
	c0.2-0.2,0.4-0.4,0.5-0.6c0-1.3,0-3-0.1-5C77.6,156.8,77.5,122.3,77.4,119.6 M73.5,113.2v1.2v1.3v1c-1.3,0.1-3,0.2-4.9,0.2
	c-1.9,0-4.2,0.1-6.7,0.1c-2.5,0-4.7,0-6.6,0.1c-1.8,0-3.4,0.1-4.6,0.2v-4.8h4.6h6.6h6.7h4.9V113.2z M72.9,108.3
	c-1.2,0-2.8,0-4.6,0.1c-1.9,0-4,0.1-6.5,0.1c-2.5,0-4.6,0-6.5,0c-1.8,0-3.4-0.1-4.6-0.2v-0.7c0-0.3,0-0.6,0.1-0.9
	c0-0.4,0.1-0.7,0.2-0.9c0.1-0.3,0.2-0.5,0.3-0.7c0.2-0.2,0.4-0.4,0.7-0.5c0.3-0.2,0.7-0.3,1.1-0.4c0.4-0.1,0.8-0.1,1.1-0.1h0.7h14.3
	c0.3-0.1,0.6-0.1,1.1-0.1c0.4,0,0.9,0.3,1.5,0.7c0.5,0.4,0.9,0.8,1.2,1.3c0.3,0.5,0.4,0.9,0.5,1.3L72.9,108.3z"/>
<path class="st0" d="M102.1,80.7h-3.2c-1.3,0-2.8,0-4.4,0.1c-1.7,0-3.2,0.1-4.4,0.2c-1.3,0.1-2.4,0.2-3.2,0.3
	c-1.1,0-2.1,0.3-3.2,0.9c-1.1,0.6-1.9,1.7-2.5,3.3c-0.6,1.6-0.8,3-0.8,4.4c0,1.3,0.1,2.3,0.2,3.1v0.3c0,0.1,0,0.3,0.1,0.5
	c0,0.2,0.1,0.4,0.2,0.7c0.1,0.2,0.2,0.4,0.3,0.6c0.4,1.1,1,2,1.9,3c0.9,0.9,2.1,1.5,3.6,1.8c1.5,0.3,2.9,0.3,4,0.2
	c1.1-0.1,2-0.2,2.6-0.2c0.8-0.1,1.8-0.1,3-0.1h4.1c1.5,0,2.9-0.1,4-0.3c1.1-0.2,2-0.4,2.7-0.7c0-0.1,0-0.2,0.1-0.3
	c0-0.1,0.1-0.3,0.2-0.5c0.1-0.2,0.2-0.3,0.2-0.5c0-0.1,0.1-0.2,0.1-0.3l-1.1-1.1c-0.6-0.2-1.4-0.3-2.3-0.4c-0.9-0.1-1.9-0.1-3-0.1
	c-1.1,0-2.2,0.1-3,0.1c-0.9,0-1.6,0-2.3-0.1c-0.6-0.1-1.4-0.1-2.4,0.1c-1,0.1-2.1,0.2-3.4,0.3c-1.3,0.1-2.4-0.1-3.2-0.5
	c-0.9-0.4-1.6-0.9-2.1-1.5v-1.6h1.3h1.9h2.1h1.6h8.5h1.1h1.7h1.8h1.3l0.3-0.3l0.5-0.5c0.2-0.2,0.3-0.3,0.5-0.5
	c0.1-0.1,0.2-0.2,0.3-0.3v-0.5c-0.1-0.2-0.2-0.4-0.3-0.6c-0.1-0.2-0.3-0.4-0.5-0.6c-0.2-0.2-0.3-0.3-0.5-0.3c-0.1,0-0.2-0.1-0.3-0.1
	c-1.2,0.1-2.8,0.1-4.6,0.1c-1.8,0-3.9,0-6.2-0.1c-2.3-0.1-4.4-0.1-6.1-0.1c-1.7,0-3.2,0-4.3,0.1v-0.7c0-0.3,0.1-0.7,0.2-1.1
	c0.1-0.4,0.3-0.7,0.6-0.9c0.3-0.2,0.5-0.4,0.8-0.5c0.9,0.1,2,0.1,3.3,0.1c1.3,0,2.9,0,4.6-0.1c1.8-0.1,3.3-0.1,4.6-0.1
	c1.3,0,2.4,0,3.3,0.1c1.1-0.4,2.3-1.2,3.4-2.3c1.1-1.1,1.7-2.6,1.8-4.4c0-1.8-0.5-3.3-1.5-4.5c-1.1-1.2-2.1-2-3.2-2.6
	c-1.1-0.2-2.6-0.3-4.3-0.4c-1.7-0.1-3.7-0.1-6,0c-2.3,0.1-4.3,0.2-6,0.3c-1.7,0.1-3.2,0.1-4.3,0.1l-1.6,0.5v0.3v0.5v0.7v0.6
	c0,0.1,0,0.2,0.1,0.3c0,0.1,0.1,0.3,0.3,0.4c0.1,0.1,0.3,0.2,0.4,0.3c0.1,0,0.2,0.1,0.3,0.1c1.1,0.1,2.6,0.2,4.2,0.2
	c1.7,0,3.6,0,5.8,0c2.2,0,4.1-0.1,5.8-0.1c1.7,0,3.1-0.1,4.2-0.1c0.2,0.2,0.4,0.4,0.6,0.6c0.2,0.2,0.4,0.5,0.6,0.7
	c0.2,0.3,0.3,0.5,0.3,0.7c0,0.2,0.1,0.4,0.1,0.6v1.1L102.1,80.7z"/>
<g>
	<path class="st1" d="M182.2,131.4H173V78.5h9.2V131.4z"/>
	<path class="st1" d="M238.4,131.4h-19.8c-16.6,0-24.8-8.8-24.8-26.4s8.3-26.4,24.8-26.4h19.8l-3.2,9.2h-16.6
		c-5.2,0-9.1,0.9-11.6,2.8c-4,2.9-4.4,6.7-4.4,14.4c0,7.8,0.4,11.4,4.4,14.1c2.5,2.1,6.4,3.1,11.6,3.1h16.6l3.2,9V131.4z"/>
	<path class="st1" d="M299.4,131.4h-9l-5.7-11h-30.2l-4.2,11h-9l21.2-52.8h6.5c2.7,0,4.8,0.6,6.3,1.9c1.3,1.1,2.5,3,3.8,6
		L299.4,131.4z M285.4,114.6l-13-24.6c-2-2.4-3.9-3.3-4.9-3.3l-0.6,1.6l-10.6,26.4L285.4,114.6z"/>
	<path class="st1" d="M346.8,131.4h-7.2l-29.2-42.4v42.4H302V78.5h10.9l25.9,36.2V78.5h8V131.4z"/>
</g>
</svg>
